<svg width="275" height="275" viewBox="0 0 275 275" fill="none" xmlns="http://www.w3.org/2000/svg">
<circle cx="137.5" cy="137.5" r="127.5" fill="white" stroke="#F9F9F9" stroke-width="20"/>
<path d="M180 134.5L137.5 120.5V170L180 134.5Z" fill="#FE8D00"/>
<path d="M137.5 120.5L93.5 135L137.5 170.5V120.5Z" fill="#FD9F00"/>
<path d="M136.5 204V149L180.5 134.5V188.5L136.5 204Z" fill="#FDC000"/>
<path d="M136.5 149L93.5 134.5V188.5L136.5 204V149Z" fill="#FDB200"/>
<path d="M120.5 171L136 149L93.5 146V167L120.5 171Z" fill="#FE8D00"/>
<path d="M158.5 163L136.5 149L180 134.5L199.5 148.5L158.5 163Z" fill="#FEECB2"/>
<path d="M115 162.5L136.5 149L93.5 135L73 148L115 162.5Z" fill="#FED966"/>
<path d="M158 107L137.5 120.5L180 134.5L201.5 122L158 107Z" fill="#FDC000"/>
<path d="M74 121.5L93.5 135L137.5 120.5L117 107L74 121.5Z" fill="#FEECB2"/>
<path d="M135.598 140.5C128.265 137.5 116.398 129.4 127.598 121C141.598 110.5 145.598 105.5 142.598 99.5C139.598 93.5 130.098 96 131.598 104C133.098 112 143.598 119 154.598 111.5C165.598 104 165.598 81 147.598 73" stroke="#B9D1E1" stroke-dasharray="2 2"/>
<path d="M151.5 72.5C151.5 72.7215 151.381 72.9602 151.114 73.1607C150.847 73.3612 150.455 73.5 150 73.5C149.545 73.5 149.153 73.3612 148.886 73.1607C148.619 72.9602 148.5 72.7215 148.5 72.5C148.5 72.2785 148.619 72.0398 148.886 71.8393C149.153 71.6388 149.545 71.5 150 71.5C150.455 71.5 150.847 71.6388 151.114 71.8393C151.381 72.0398 151.5 72.2785 151.5 72.5Z" stroke="#839DAE"/>
<circle cx="147.5" cy="72.5" r="1.5" fill="#B9D1E1"/>
<path d="M149.5 75C149.5 75.4546 149.361 75.8468 149.161 76.1142C148.96 76.3814 148.722 76.5 148.5 76.5C148.278 76.5 148.04 76.3814 147.839 76.1142C147.639 75.8468 147.5 75.4546 147.5 75C147.5 74.5454 147.639 74.1532 147.839 73.8858C148.04 73.6186 148.278 73.5 148.5 73.5C148.722 73.5 148.96 73.6186 149.161 73.8858C149.361 74.1532 149.5 74.5454 149.5 75Z" stroke="#839DAE"/>
</svg>
